<svg xmlns="http://www.w3.org/2000/svg" width="48" height="48" viewBox="0 0 200 200" fill="none">
  <path d="M 28 38 C 40 55, 60 70, 92 95" stroke="#c49a6c" stroke-width="2.5" stroke-linecap="round" fill="none" opacity="0.6"/>
  <path d="M 172 32 C 155 52, 130 72, 108 94" stroke="#d4a574" stroke-width="2" stroke-linecap="round" fill="none" opacity="0.6"/>
  <path d="M 18 118 C 38 112, 62 106, 90 100" stroke="#b87333" stroke-width="2.8" stroke-linecap="round" fill="none" opacity="0.6"/>
  <path d="M 182 128 C 160 120, 134 110, 110 102" stroke="#c49a6c" stroke-width="2.2" stroke-linecap="round" fill="none" opacity="0.6"/>
  <path d="M 52 178 C 62 158, 78 132, 95 108" stroke="#6aaa9c" stroke-width="1.8" stroke-linecap="round" fill="none" opacity="0.5"/>
  <path d="M 152 182 C 142 160, 124 134, 106 108" stroke="#c47a7a" stroke-width="1.8" stroke-linecap="round" fill="none" opacity="0.5"/>
  <path d="M 100 82 L 114 100 L 100 118 L 86 100 Z" fill="#c49a6c"/>
  <circle cx="28" cy="38" r="5" fill="#c49a6c" opacity="0.7"/>
  <circle cx="172" cy="32" r="4.5" fill="#d4a574" opacity="0.6"/>
  <circle cx="18" cy="118" r="5.5" fill="#b87333" opacity="0.7"/>
  <circle cx="182" cy="128" r="4.5" fill="#c49a6c" opacity="0.6"/>
  <circle cx="52" cy="178" r="4.5" fill="#6aaa9c" opacity="0.6"/>
</svg>
